<svg version="1.1" viewBox="0.0 0.0 281.4461942257218 163.8477690288714" fill="none" stroke="none" stroke-linecap="square" stroke-miterlimit="10" xmlns:xlink="http://www.w3.org/1999/xlink" xmlns="http://www.w3.org/2000/svg"><clipPath id="p.0"><path d="m0 0l281.4462 0l0 163.84776l-281.4462 0l0 -163.84776z" clip-rule="nonzero"/></clipPath><g clip-path="url(#p.0)"><path fill="#000000" fill-opacity="0.0" d="m0 0l281.4462 0l0 163.84776l-281.4462 0z" fill-rule="evenodd"/><g filter="url(#shadowFilter-p.1)"><use xlink:href="#p.1" transform="matrix(1.0 0.0 0.0 1.0 1.0 0.0)"/></g><defs><filter id="shadowFilter-p.1" filterUnits="userSpaceOnUse"><feGaussianBlur in="SourceAlpha" stdDeviation="3.0" result="blur"/><feComponentTransfer in="blur" color-interpolation-filters="sRGB"><feFuncR type="linear" slope="0" intercept="0.0"/><feFuncG type="linear" slope="0" intercept="0.0"/><feFuncB type="linear" slope="0" intercept="0.0"/><feFuncA type="linear" slope="0.81" intercept="0"/></feComponentTransfer></filter></defs><g id="p.1"><path fill="#000000" fill-opacity="0.0" d="m0.002624672 -32.475067l281.44882 0l0 196.31496l-281.44882 0z" fill-rule="evenodd"/><path fill="#6441a4" d="m64.94714 92.10806l0 0.25q-4.46875 6.15625 -9.859375 6.15625q-5.375 0 -5.375 -9.484375q0 -3.828125 0.640625 -10.875q-5.109375 9.984375 -19.578125 20.609375q-4.484375 10.75 -5.515625 14.265625q-1.015625 3.53125 -1.390625 4.546875q-5.640625 15.875 -5.640625 26.875q0 11.015625 7.421875 11.015625q4.875 0 11.78125 -4.21875q-1.28125 2.296875 -4.9375 4.015625q-3.640625 1.734375 -6.078125 1.734375q-6.140625 0 -10.9375 -4.796875q-4.796875 -4.796875 -4.796875 -11.203125l0 -0.375q0 -8.1875 7.546875 -24.453125l7.9375 -17.15625q5.0 -10.625 7.6875 -18.484375q2.6875 -7.875 2.6875 -15.6875q-0.90625 2.6875 -4.734375 9.21875q-6.15625 10.625 -6.859375 10.625q-0.703125 0 -0.703125 -0.515625q0.265625 -0.515625 0.703125 -1.15625q0.453125 -0.640625 0.828125 -1.40625q0.390625 -0.765625 1.15625 -2.171875q6.921875 -11.515625 9.09375 -19.84375q0.765625 -3.328125 3.125 -3.328125q2.375 0 2.375 6.40625q0 6.390625 -3.328125 16.25q-1.53125 4.359375 -5.5 16.265625q10.75 -8.203125 17.921875 -20.09375q1.28125 -8.96875 3.453125 -11.78125q0.890625 -0.890625 2.9375 -0.890625q2.046875 0 2.046875 1.40625q0 3.828125 -2.421875 7.03125q-2.8125 9.609375 -2.8125 18.6875q0 6.140625 3.828125 6.140625q1.921875 0 3.90625 -1.65625q1.984375 -1.671875 2.5625 -2.171875q0.578125 -0.515625 0.453125 -0.515625q0.375 0 0.375 0.765625zm162.81288 -66.046875l1.15625 -6.40625q0 -8.5625 -8.828125 -8.5625q-7.296875 0 -16.890625 7.421875q-12.296875 10.109375 -24.84375 31.234373q-3.828125 6.640625 -10.5625 19.0q-6.71875 12.359375 -9.265625 16.828125q-13.703125 24.578125 -18.953125 24.578125q-0.25 0 -0.25 -0.828125q0 -0.828125 1.015625 -1.09375q1.40625 -2.171875 1.40625 -7.484375q0 -5.3125 -1.40625 -14.140625q-1.921875 -10.25 -2.171875 -13.828125q-6.65625 10.625 -18.296875 25.21875q-15.5 19.703125 -20.109375 19.703125q-0.375 0 -0.375 -0.640625q0 -0.625 1.40625 -1.265625q8.453125 -3.59375 21.765625 -22.15625q8.5625 -11.765625 15.359375 -23.671875q-0.515625 -4.609375 -0.515625 -12.796875q0 -8.203125 1.921875 -16.90625q2.6875 -12.156248 9.078125 -15.874998q1.796875 -1.140625 3.203125 -1.140625q5.640625 0 5.640625 7.03125q0 10.249998 -12.421875 31.624998q0.640625 6.140625 1.71875 13.5q1.09375 7.359375 1.09375 9.921875q0 13.1875 -5.625 22.140625q4.859375 -3.453125 13.046875 -18.8125q4.734375 -8.828125 15.359375 -29.4375q9.734375 -18.046875 19.46875 -30.859373q11.890625 -15.09375 24.4375 -20.984375q3.078125 -1.53125 6.015625 -1.53125q4.875 0 7.171875 3.3281255q2.5625 3.328125 2.5625 8.1875q0 1.40625 -0.703125 5.125q-0.703125 3.703125 -1.46875 3.828125q-0.140625 -0.125 -0.140625 -0.25zm-107.125 30.328123q0 14.34375 -6.65625 30.46875q-2.5625 6.40625 -13.953125 28.421875q-0.390625 0.375 -0.765625 0.375q-1.03125 0 -1.03125 -0.703125q0 -0.703125 4.34375 -13.3125q4.359375 -12.609375 6.796875 -21.046875q3.703125 -13.953125 3.703125 -23.6875q0 -17.65625 -8.4375 -25.078123q1.53125 8.187498 1.53125 18.546873q0 18.3125 -4.796875 39.046875q-4.796875 20.734375 -13.125 34.6875q-0.375 0.640625 -0.640625 0.640625q-0.25 0 -0.25 -1.34375q0 -1.34375 5.171875 -17.46875q5.1875 -16.125 7.625 -25.734375q4.484375 -17.15625 4.484375 -29.375q0 -12.21875 -2.046875 -20.546873q-4.234375 -2.6875 -9.734375 -2.6875q-12.03125 0 -20.9375 10.312498q-8.890625 10.296875 -8.890625 22.453125q0 6.921875 3.140625 10.0q3.140625 3.0625 8.1875 3.0625q5.0625 0 10.3125 -3.578125q5.25 -3.59375 9.078125 -8.84375q0.390625 -0.5 0.640625 -0.5q0.265625 0 0.265625 0.390625q0 0.375 -0.265625 0.890625q-3.0625 5.109375 -9.984375 9.78125q-6.90625 4.671875 -11.640625 4.671875q-4.734375 0 -7.6875 -2.046875q-3.453125 -2.171875 -4.53125 -5.375q-1.09375 -3.203125 -1.09375 -8.828125q0 -5.640625 3.078125 -12.546875q4.21875 -9.21875 13.9375 -15.421875q9.734375 -6.203123 20.109375 -6.203123q2.421875 0 4.859375 0.375q-3.578125 -9.859375 -10.5 -11.140625q-0.640625 -0.25 -0.640625 -0.625q0 -1.28125 1.796875 -1.28125q7.421875 0 11.265625 13.5625q17.28125 4.859375 17.28125 29.687498zm33.40625 -26.874998q0 -5.375 -2.6875 -5.375q-7.5625 0 -7.5625 21.249998q0 4.859375 0.640625 12.28125q9.609375 -19.1875 9.609375 -28.156248zm109.188644 2.046875q0 4.234373 -5.390625 6.140623q-3.828125 1.546875 -8.953125 1.546875q-5.125 0 -10.75 -1.40625q-5.890625 -1.15625 -9.859375 -3.96875q-0.25 -0.265625 -0.25 -0.515625q0 -0.25 0.3125 -0.25q0.328125 0 0.453125 0.125q7.03125 4.609375 19.84375 4.609375q4.34375 0 7.921875 -1.59375q3.59375 -1.609375 3.59375 -4.812498q0 -4.609375 -6.65625 -6.90625q-4.609375 -1.671875 -10.375 -1.671875q-16.0 0 -21.875 10.374998q-1.796875 3.203125 -1.796875 6.65625q0 7.796875 8.703125 13.6875q5.765625 3.84375 16.0 10.25q8.578125 7.03125 8.578125 17.53125q0 14.203125 -14.59375 22.78125q-12.15625 7.171875 -26.046875 7.171875q-13.890625 0 -22.078125 -4.859375q-10.25 -5.890625 -10.25 -17.09375q0 -11.203125 8.25 -18.296875q8.265625 -7.109375 19.140625 -7.109375q6.015625 0 6.015625 1.015625q0 0.265625 -2.046875 0.265625q-2.046875 0 -2.171875 0q-10.359375 0 -17.921875 6.140625q-8.0625 6.265625 -8.0625 16.828125q0 10.5625 7.296875 16.390625q7.296875 5.828125 17.15625 5.828125q9.859375 0 20.984375 -4.609375q19.203125 -7.6875 19.203125 -23.9375q0 -9.984375 -8.828125 -16.125q-2.8125 -2.0625 -8.328125 -5.515625q-5.5 -3.453125 -7.796875 -4.984375q-8.703125 -5.890625 -8.703125 -14.34375q0 -5.625 4.21875 -10.234373q-3.84375 0.375 -6.53125 3.703123q-2.5625 3.59375 -2.5625 7.4375q0 8.828125 8.328125 15.09375q2.6875 2.046875 15.359375 10.625q8.1875 6.78125 8.1875 15.875q0 9.09375 -8.96875 16.828125q-8.953125 7.75 -18.296875 7.75q-0.640625 0 -0.640625 -0.390625q0 -0.765625 0.90625 -0.765625q3.96875 -0.515625 6.78125 -1.40625q6.90625 -2.8125 12.40625 -8.953125q5.515625 -6.15625 5.515625 -12.9375q0 -9.46875 -8.0625 -15.484375q-2.4375 -1.921875 -7.5 -5.3125q-5.046875 -3.390625 -7.484375 -5.1875q-8.1875 -6.015625 -8.1875 -15.609375q0 -4.734375 3.328125 -8.375q3.328125 -3.656248 7.9375 -3.656248l0.25 0q9.09375 -8.703125 23.421875 -8.703125q14.34375 0 19.328125 6.265625q1.546875 1.921875 1.546875 4.09375z" fill-rule="nonzero"/></g></g></svg>